<svg xmlns="http://www.w3.org/2000/svg" width="27.172" height="15.526" viewBox="0 0 27.172 15.526">
  <g id="Group_271" data-name="Group 271" transform="translate(-104.997 -140)">
    <path id="Path_244" data-name="Path 244" d="M118.583,140c-7.339,0-13.119,6.851-13.362,7.143a.971.971,0,0,0,0,1.241c.243.292,6.023,7.143,13.362,7.143s13.118-6.851,13.361-7.143a.969.969,0,0,0,0-1.241C131.7,146.851,125.921,140,118.583,140Zm0,13.586c-5.213,0-9.752-4.207-11.3-5.823,1.55-1.616,6.089-5.823,11.3-5.823s9.752,4.207,11.3,5.823C128.335,149.379,123.8,153.586,118.583,153.586Z"/>
    <path id="Path_245" data-name="Path 245" d="M283.882,210a3.886,3.886,0,1,0,2.743,1.138A3.881,3.881,0,0,0,283.882,210Zm0,5.823a1.943,1.943,0,1,1,1.372-.569A1.942,1.942,0,0,1,283.882,215.823Z" transform="translate(-165.299 -66.118)"/>
  </g>
</svg>
