<svg id="Group_1858" data-name="Group 1858" xmlns="http://www.w3.org/2000/svg" xmlns:xlink="http://www.w3.org/1999/xlink" width="33.267" height="33" viewBox="0 0 33.267 33">
  <defs>
    <clipPath id="clip-path">
      <rect id="Rectangle_2369" data-name="Rectangle 2369" width="33.267" height="33" fill="none"/>
    </clipPath>
  </defs>
  <g id="Group_1857" data-name="Group 1857" clip-path="url(#clip-path)">
    <path id="Path_1861" data-name="Path 1861" d="M28.162,0a.809.809,0,0,0-.789.789.789.789,0,0,0,1.578,0A.809.809,0,0,0,28.162,0M24.049.95a.81.81,0,0,0-.3.075A9.974,9.974,0,0,0,18.17,9.94L17.118,8.888a.781.781,0,0,0-1.1,1.1l2.63,2.63a.757.757,0,0,0,.552.237.742.742,0,0,0,.394-.105.386.386,0,0,0,.158-.131l2.63-2.63a.781.781,0,1,0-1.1-1.1l-1.525,1.525a8.44,8.44,0,0,1,4.681-7.967A.788.788,0,0,0,24.8,1.394.777.777,0,0,0,24.049.95ZM9.395,17.711A8.688,8.688,0,0,0,4,19.485l-1.025.789-.079.079-.263.263a.757.757,0,0,0-.237.552v8.414H.789a.789.789,0,1,0,0,1.578H3.155a.775.775,0,0,0,.789-.789V21.483l1-.762a7.119,7.119,0,0,1,7.2-.842l6.784,3.05a1.188,1.188,0,0,1,.684.736,1.317,1.317,0,0,1-.026,1,1.292,1.292,0,0,1-.71.683,1.317,1.317,0,0,1-1-.026l-5.259-2.34a.794.794,0,0,0-.657,1.446l5.259,2.34a2.8,2.8,0,0,0,2.209.052.972.972,0,0,0,.289-.131c.053,0,.079-.026.105-.026L29.871,22.4a1.315,1.315,0,0,1,1,0,1.34,1.34,0,0,1,.71.71,1.315,1.315,0,0,1,0,1,1.34,1.34,0,0,1-.71.71L16.04,31.08a4.454,4.454,0,0,1-3.708-.1L6.074,27.925a.788.788,0,0,0-.684,1.42l6.259,3.05A5.861,5.861,0,0,0,14.3,33a6.23,6.23,0,0,0,2.367-.474L31.5,26.269a2.854,2.854,0,0,0,1.551-1.578,2.8,2.8,0,0,0-.026-2.209,2.9,2.9,0,0,0-3.76-1.551l-.316.131a2.841,2.841,0,0,0-1.393-1.21,2.8,2.8,0,0,0-2.209.026L22.3,21.167a.8.8,0,0,0-.421,1.025.809.809,0,0,0,.736.473,1.319,1.319,0,0,0,.315-.052l3.051-1.288a1.314,1.314,0,0,1,1,0,1.184,1.184,0,0,1,.5.368L21.3,24.323a2.859,2.859,0,0,0-1.709-2.84l-6.81-3.024A8.649,8.649,0,0,0,9.4,17.711Z" fill="#0e5554"/>
  </g>
</svg>
