<svg id="Group_1757" data-name="Group 1757" xmlns="http://www.w3.org/2000/svg" xmlns:xlink="http://www.w3.org/1999/xlink" width="46.467" height="53.175" viewBox="0 0 46.467 53.175">
  <defs>
    <clipPath id="clip-path">
      <rect id="Rectangle_2307" data-name="Rectangle 2307" width="46.467" height="53.175" fill="#fff"/>
    </clipPath>
  </defs>
  <g id="Group_1756" data-name="Group 1756" clip-path="url(#clip-path)">
    <path id="Path_1840" data-name="Path 1840" d="M494.267,158.886V183.92a1.555,1.555,0,0,1-.777,1.346l-4.879,2.816-4.515,2.607-5.659,3.267v-6.543l5.659-3.269,4.515-2.608V154.723l4.879,2.817a1.553,1.553,0,0,1,.777,1.346" transform="translate(-447.8 -144.815)" fill="#fff"/>
    <path id="Path_1841" data-name="Path 1841" d="M324.573,1.427V51.749l-2.111,1.219a1.557,1.557,0,0,1-1.554,0l-2.037-1.176V1.385L320.908.209a1.552,1.552,0,0,1,1.554,0Z" transform="translate(-298.452 -0.001)" fill="#fff"/>
    <path id="Path_1842" data-name="Path 1842" d="M15.9,62.33V68.9l-5.673,3.277L5.715,74.786V101.64L.777,98.789A1.553,1.553,0,0,1,0,97.443V72.41a1.551,1.551,0,0,1,.777-1.346l4.938-2.852,4.516-2.607Z" transform="translate(0 -58.339)" fill="#fff"/>
    <path id="Path_1843" data-name="Path 1843" d="M484.09,256.768v17.643l-5.659,3.267v-20.91Z" transform="translate(-447.794 -240.326)" fill="#fff"/>
    <path id="Path_1844" data-name="Path 1844" d="M484.1,66.264,478.437,63v6.4H484.1Z" transform="translate(-447.8 -58.963)" fill="#fff"/>
    <rect id="Rectangle_2305" data-name="Rectangle 2305" width="5.659" height="4.156" transform="translate(30.637 11.36)" fill="#fff"/>
    <path id="Path_1845" data-name="Path 1845" d="M165.541,247.084l-5.659,3.267v3.6h5.659Z" transform="translate(-149.643 -231.262)" fill="#fff"/>
    <rect id="Rectangle_2306" data-name="Rectangle 2306" width="5.659" height="4.156" transform="translate(10.238 30.21)" fill="#fff"/>
    <path id="Path_1846" data-name="Path 1846" d="M165.541,667.022l-5.659-3.23v-3.633h5.659Z" transform="translate(-149.643 -617.885)" fill="#fff"/>
  </g>
</svg>
