<svg xmlns="http://www.w3.org/2000/svg" width="43.046" height="33" viewBox="0 0 43.046 33">
  <path id="Path_1862" data-name="Path 1862" d="M35.871,30.132h1.435v-4.3H35.871Zm0-5.739h1.435V22.958H35.871Zm-4.3,4.231v-4.16l2.941-2.941h4.162l2.941,2.941v4.16l-2.941,2.941H34.508Zm2.347-8.536L30.132,23.87v5.348L33.913,33h5.351l3.782-3.782V23.87l-3.782-3.782Zm-18.13,0H27.262V18.653H15.783Zm0-5.739h8.609V12.914H15.783Zm0-5.739H31.567V7.174H15.783ZM34.446,0H13.574L5.289,14.338,7.45,18.079,0,26.952l11.412-2.016,2.159,3.736H28.7V27.254l-14.29,0-2.254-3.9-8.516,1.5L9.2,18.232l-2.251-3.9L14.4,1.426l19.219,0,7.462,12.914L38.6,18.639h1.259l.243.243,2.627-4.547Z" fill="#0e5554"/>
</svg>
