<svg xmlns="http://www.w3.org/2000/svg" width="51.593" height="16" viewBox="0 0 51.593 16">
  <g id="Visa_52x20_px_Solid" data-name="Visa / 52x20 px / Solid" transform="translate(0 -2)">
    <g id="visa">
      <path id="Vector" d="M11.616,0H8.373A2.131,2.131,0,0,0,6.185,1.3L0,15.543H4.375s.754-1.9.905-2.362h5.355c.151.533.528,2.286.528,2.286h3.922ZM6.487,9.981c.377-.914,1.659-4.343,1.659-4.343A10.716,10.716,0,0,0,8.674,4.19l.3,1.371s.83,3.733.981,4.5H6.487Z" transform="translate(36.508 2.229)" fill="#fff"/>
      <path id="Vector-2" data-name="Vector" d="M11.993,10.667c0,3.2-2.866,5.333-7.317,5.333A12.258,12.258,0,0,1,0,15.162l.6-3.5.528.229a8.251,8.251,0,0,0,3.922.838c1.207,0,2.489-.457,2.489-1.524,0-.686-.528-1.143-2.187-1.9-1.584-.762-3.7-1.981-3.7-4.19C1.659,2.057,4.6,0,8.75,0a9.541,9.541,0,0,1,3.771.686l-.6,3.352-.3-.3a8.035,8.035,0,0,0-3.168-.61C6.864,3.2,6.11,3.886,6.11,4.5c0,.686.905,1.219,2.338,1.9C10.862,7.543,11.993,8.838,11.993,10.667Z" transform="translate(24.816 2)" fill="#fff"/>
      <path id="Vector-3" data-name="Vector" d="M0,.3.075,0H6.562a1.6,1.6,0,0,1,1.81,1.3L9.806,8.152C8.373,4.5,5.054,1.524,0,.3Z" transform="translate(0 2.075)" fill="#fff"/>
      <path id="Vector-4" data-name="Vector" d="M14.784.076,8.222,15.543H3.771L0,2.59a16.731,16.731,0,0,1,5.808,6.4l.453,1.6L10.334,0h4.45Z" transform="translate(4.149 2.152)" fill="#fff"/>
      <path id="Vector-5" data-name="Vector" d="M2.64,0H6.789L4.149,15.543H0Z" transform="translate(18.027 2.152)" fill="#fff"/>
    </g>
  </g>
</svg>
